#!OML:ASF H:\ManfredObstacles\Project 1\Capture day 2\Session 1\male.ASF
:FULLY-SPECIFIED
:DEGREES
177
root 7.25306 15.1674 -14.5374 -177.677 55.2114 173.923
lowerback 1.51058 -1.78871 -2.36377
upperback 1.81346 -2.38245 1.07212
thorax 1.15623 -1.21708 2.43226
lowerneck -31.7529 1.97731 3.20979
upperneck 39.1671 4.51771 -3.9898
head 21.454 1.95371 -1.27657
rclavicle -1.71949e-014 4.05521e-014
rhumerus -48.0429 9.15329 -87.1728
rradius 74.651
rwrist 8.49457
rhand -13.1611 -8.97133
rfingers 7.12502
rthumb 12.9379 -38.5502
lclavicle -1.71949e-014 4.05521e-014
lhumerus -56.0909 -15.6182 99.7109
lradius 94.3193
lwrist -17.6284
lhand -15.2052 12.9703
lfingers 7.12502
lthumb 10.9668 42.6639
rfemur -21.2721 4.5525 25.9885
rtibia 47.9567
rfoot -17.4399 -19.6064
rtoes -14.9028
lfemur -16.9223 5.92524 -20.9231
ltibia 83.029
lfoot 20.8131 13.7227
ltoes -1.61088
178
root 7.45204 15.1552 -14.7166 -177.134 55.2748 174.371
lowerback 1.52838 -1.49244 -2.04397
upperback 1.73166 -1.98716 1.07842
thorax 1.02704 -1.01362 2.26117
lowerneck -31.7754 1.74634 3.12159
upperneck 39.3149 4.16005 -3.83763
head 21.5277 1.84019 -1.27805
rclavicle 1.71949e-014 5.56597e-015
rhumerus -46.4727 9.53655 -87.9516
rradius 74.9853
rwrist 8.88775
rhand -13.2119 -8.68764
rfingers 7.12502
rthumb 12.8889 -38.2696
lclavicle 1.71949e-014 5.56597e-015
lhumerus -56.8285 -15.1697 99.5754
lradius 94.5277
lwrist -17.2349
lhand -15.205 12.9801
lfingers 7.12502
lthumb 10.967 42.6736
rfemur -20.089 4.7625 26.2249
rtibia 47.6133
rfoot -17.6303 -19.9772
rtoes -15.6887
lfemur -19.5702 5.56543 -20.8115
ltibia 84.5832
lfoot 19.7743 14.8772
ltoes -1.84955
179
root 7.65513 15.1575 -14.8964 -176.653 55.3028 174.702
lowerback 1.50183 -1.17871 -1.84066
upperback 1.61802 -1.56945 1.08006
thorax 0.896568 -0.800823 2.14846
lowerneck -31.7647 1.47334 3.00352
upperneck 39.5189 3.74868 -3.64623
head 21.6272 1.71272 -1.26786
rclavicle -2.3556e-014 -5.56597e-015
rhumerus -45.2151 10.0323 -88.6866
rradius 75.5787
rwrist 9.19983
rhand -13.2517 -8.31928
rfingers 7.12502
rthumb 12.8506 -37.9037
lclavicle -2.3556e-014 -5.56597e-015
lhumerus -57.5936 -14.9211 99.4945
lradius 94.8781
lwrist -17.0302
lhand -15.1893 12.7538
lfingers 7.12502
lthumb 10.9822 42.4466
rfemur -18.8546 4.96458 26.389
rtibia 47.0981
rfoot -17.5896 -20.2578
rtoes -16.5812
lfemur -22.1888 5.12658 -20.7889
ltibia 85.7149
lfoot 18.7709 15.9627
ltoes -2.07698
180
root 7.8628 15.1738 -15.0777 -176.223 55.3102 174.961
lowerback 1.43798 -0.818062 -1.68577
upperback 1.50309 -1.08911 1.04086
thorax 0.785883 -0.557696 2.01898
lowerneck -31.8398 1.1508 2.9027
upperneck 39.7944 3.23259 -3.41301
head 21.7976 1.55864 -1.26718
rclavicle 6.77856e-014 -4.92986e-014
rhumerus -44.2249 10.4839 -89.3892
rradius 76.3768
rwrist 9.42929
rhand -13.2771 -7.88466
rfingers 7.12502
rthumb 12.8261 -37.4706
lclavicle 6.77856e-014 -4.92986e-014
lhumerus -58.3371 -14.9762 99.4343
lradius 95.326
lwrist -16.9859
lhand -15.123 12.341
lfingers 7.12502
lthumb 11.0461 42.0303
rfemur -17.5413 5.17457 26.5104
rtibia 46.4118
rfoot -17.2801 -20.4324
rtoes -17.5771
lfemur -24.708 4.63214 -20.8147
ltibia 86.3992
lfoot 17.8426 16.9395
ltoes -2.32689
181
root 8.07505 15.2037 -15.261 -175.816 55.3127 175.206
lowerback 1.37182 -0.413538 -1.55436
upperback 1.37963 -0.550557 0.989168
thorax 0.668696 -0.285852 1.88883
lowerneck -31.9256 0.780882 2.7808
upperneck 40.082 2.63472 -3.14235
head 21.9789 1.37996 -1.26458
rclavicle -2.06736e-014 9.54166e-015
rhumerus -43.5353 10.9522 -90.037
rradius 77.3779
rwrist 9.52975
rhand -13.3056 -7.42078
rfingers 7.12502
rthumb 12.7986 -37.0085
lclavicle -2.06736e-014 9.54166e-015
lhumerus -59.0594 -15.2826 99.423
lradius 95.8239
lwrist -17.085
lhand -15.0011 11.7847
lfingers 7.12502
lthumb 11.1637 41.4678
rfemur -16.1406 5.37814 26.6231
rtibia 45.5529
rfoot -16.659 -20.4824
rtoes -18.7164
lfemur -27.0822 4.10795 -20.8421
ltibia 86.6305
lfoot 17.0233 17.7678
ltoes -2.6282
182
root 8.29167 15.2466 -15.447 -175.396 55.3038 175.48
lowerback 1.30011 0.0221323 -1.40726
upperback 1.25045 0.0297138 0.925559
thorax 0.55063 0.00675076 1.73661
lowerneck -32.0571 0.379873 2.64986
upperneck 40.4036 1.9795 -2.84365
head 22.2018 1.18693 -1.26081
rclavicle 5.99336e-014 2.54444e-014
rhumerus -43.0978 11.4188 -90.6411
rradius 78.5219
rwrist 9.50247
rhand -13.2928 -6.99564
rfingers 7.12502
rthumb 12.811 -36.5825
lclavicle 5.99336e-014 2.54444e-014
lhumerus -59.7635 -15.7857 99.4478
lradius 96.35
lwrist -17.2651
lhand -14.8574 11.1186
lfingers 7.12502
lthumb 11.3023 40.7941
rfemur -14.6614 5.55237 26.7457
rtibia 44.5284
rfoot -15.7819 -20.3356
rtoes -19.8916
lfemur -29.2905 3.56145 -20.8415
ltibia 86.4115
lfoot 16.3547 18.429
ltoes -3.03557
